<?xml version="1.0" encoding="utf-8"?>
<!-- Generator: Adobe Illustrator 16.0.0, SVG Export Plug-In . SVG Version: 6.00 Build 0)  -->
<!DOCTYPE svg PUBLIC "-//W3C//DTD SVG 1.1//EN" "http://www.w3.org/Graphics/SVG/1.1/DTD/svg11.dtd">
<svg version="1.1" id="Layer_1" xmlns="http://www.w3.org/2000/svg" xmlns:xlink="http://www.w3.org/1999/xlink" x="0px" y="0px"
	 width="256px" height="134.692px" viewBox="0 0 256 134.692" enable-background="new 0 0 256 134.692" xml:space="preserve">
<path fill="#FFD300" d="M177.933,72.593c-1.596,0.522-3.311,1.078-5.125,1.658c1.586,0.797,2.98,1.26,4.188,1.4
	c0.533,0.063,1.01,0.064,1.428,0.006c0.633-0.09,1.131-0.318,1.488-0.692c0.256-0.218,0.322-0.451,0.178-0.699
	c-0.135-0.24-0.398-0.515-0.799-0.804C178.923,73.191,178.474,72.901,177.933,72.593 M66.896,30.892
	c-0.153,0.021-9.015,2.197-9.178,2.254c0,0-52.736,18.069-41.898,68.425c4.904,22.79,29.17,26.888,58.188,22.81
	c47.909-6.733,108.782-35.744,116.946-39.712c-0.045-0.104-0.084-0.23-0.111-0.383c-0.188-1.039-1.24-12.377-1.461-15.524
	c-1.064,0.367-2.459,0.843-4.145,1.41c0.281,0.229,0.533,0.466,0.752,0.707c0.439,0.482,0.719,1.014,0.83,1.595
	c0.119,0.589,0.006,1.243-0.34,1.983c-0.209,0.514-0.514,1.084-0.9,1.7c-0.385,0.624-0.898,1.216-1.541,1.79
	c-0.641,0.574-1.42,1.09-2.342,1.539c-0.914,0.457-2.018,0.785-3.301,0.982c-0.115,0.02-0.23,0.037-0.346,0.054
	c-1.609,0.226-3.174,0.108-4.699-0.348c-1.633-0.479-3.313-1.479-5.039-2.991c-0.551-0.42-0.945-0.797-1.186-1.13
	c-2.514,0.788-5.168,1.608-7.936,2.449c-0.014,0.077-0.029,0.152-0.043,0.228c-0.26,1.368-0.502,2.682-0.744,3.96
	c-0.105,0.481-0.258,0.78-0.451,0.894c-0.076,0.049-0.182,0.082-0.314,0.101c-0.201,0.028-0.469,0.023-0.807-0.013
	c-0.512-0.066-1.041-0.156-1.602-0.275c-0.553-0.113-1.064-0.248-1.535-0.39c-0.465-0.255-0.777-0.53-0.928-0.82
	c-0.145-0.291-0.199-0.733-0.158-1.344c0.02-0.126,0.039-0.253,0.057-0.384c-2.234,0.66-4.527,1.328-6.861,1.996
	c0.002,0.482,0.006,0.955,0.008,1.418c0,0.414-0.082,0.72-0.242,0.898c-0.16,0.186-0.512,0.313-1.074,0.393
	c-0.553,0.078-1.064,0.133-1.537,0.164c-0.465,0.031-0.945-0.006-1.441-0.126c-0.512-0.083-0.865-0.241-1.072-0.472
	c-0.127-0.141-0.23-0.365-0.313-0.674c-3.943,1.099-7.98,2.188-12.068,3.248c-0.047,0.035-0.098,0.064-0.148,0.086
	c-0.068,0.029-0.145,0.049-0.232,0.062c-0.07,0.011-0.15,0.015-0.234,0.013c-14.689,3.796-29.953,7.185-43.482,9.086
	c-9.758,1.371-18.615,1.969-25.711,1.391c-6.871-0.564-5.525-10.46-1.492-11.788c4.637-2.257,8.09-0.884,8.09-0.884
	S64.272,33.016,66.896,30.892z"/>
<path fill="#FF0095" d="M74.399,23.389c-0.91,0.128-1.871,0.403-2.883,0.824c-1.273,0.525-2.533,1.454-3.785,2.788
	c-1.54,1.652-2.921,3.522-4.126,5.593c-1.206,2.08-2.234,4.247-3.104,6.513c-0.271,0.711-0.523,1.425-0.759,2.143
	c-0.514,1.568-0.941,3.152-1.279,4.748c-0.494,2.326-0.786,4.562-0.879,6.701c-0.092,2.139,0.018,4.129,0.326,5.953
	c0.134,0.794,0.311,1.535,0.529,2.224c0.287,0.899,0.648,1.707,1.088,2.424c0.439,0.837,1.063,1.537,1.861,2.098
	c0.801,0.553,1.6,0.959,2.4,1.193c0.889,0.195,1.898,0.398,3.026,0.612c1.12,0.206,2.386,0.261,3.779,0.16
	c0.325-0.011,0.657-0.04,0.995-0.088c0.338-0.047,0.684-0.113,1.031-0.197c0.697-0.159,1.363-0.365,2.004-0.619
	c0.633-0.245,1.242-0.538,1.819-0.878c0.081-0.045,0.159-0.092,0.236-0.138c0.048-0.133,0.094-0.266,0.142-0.399
	c0.168-0.439,0.393-0.747,0.666-0.941c0.205-0.136,0.428-0.219,0.669-0.253c0.09-0.012,0.181-0.018,0.276-0.018
	c0.078,0.002,0.156,0.008,0.237,0.017c0.589-0.602,1.179-1.284,1.769-2.045c0.826-1.075,1.51-2.226,2.049-3.46
	c0.506-1.056,0.74-1.928,0.693-2.595c-0.039-0.66-0.623-1.08-1.752-1.241c-0.874-0.145-1.697-0.164-2.469-0.055
	c-1.715,0.241-3.178,1.11-4.391,2.609c-2.106,2.625-3.748,4.016-4.924,4.181c-0.183,0.026-0.354,0.022-0.514-0.011
	c-0.616-0.104-1.096-0.581-1.415-1.435c-0.326-0.853-0.517-1.915-0.579-3.203c-0.053-1.289,0.014-2.742,0.217-4.352
	c0.195-1.618,0.486-3.25,0.875-4.903c0.418-1.598,0.99-3.346,1.723-5.238c0.725-1.891,1.512-3.644,2.34-5.248
	c0.836-1.612,1.656-2.929,2.459-3.976c0.666-0.862,1.26-1.332,1.781-1.405c0.107-0.015,0.211-0.014,0.311,0.004
	c0.593,0.176,0.951,0.67,1.063,1.484c0.119,0.822,0.165,1.74,0.131,2.765c0,0.579,0.046,1.195,0.133,1.857
	c0.111,0.788,0.311,1.46,0.572,2.038c0.264,0.568,0.623,1.053,1.063,1.458c0.448,0.395,1.007,0.723,1.688,0.964
	c0.688,0.232,1.496,0.386,2.449,0.442c0.376,0.018,0.694,0.01,0.955-0.026c0.089-0.012,0.17-0.028,0.246-0.048
	c0.297-0.067,0.529-0.186,0.689-0.33c0.16-0.153,0.289-0.352,0.377-0.589c0.089-0.229,0.186-0.484,0.273-0.756
	c0.178-0.604,0.34-1.275,0.492-2.014c0.146-0.738,0.268-1.507,0.357-2.307c0.09-0.799,0.163-1.596,0.205-2.406
	c0.049-0.811,0.059-1.573,0.027-2.312c-0.03-0.635-0.086-1.224-0.172-1.774c-0.088-0.549-0.247-1.063-0.471-1.541
	c-0.215-0.48-0.51-0.948-0.887-1.389c-0.367-0.44-0.83-0.886-1.398-1.315c-0.592-0.332-1.256-0.645-2-0.947
	c-0.736-0.294-1.529-0.554-2.354-0.775c-0.832-0.211-1.688-0.385-2.577-0.502c-0.889-0.109-1.754-0.16-2.587-0.138
	C74.886,23.332,74.645,23.355,74.399,23.389"/>
<path fill="#FF0095" d="M111.397,18.462c-0.209,0.03-0.395,0.079-0.557,0.147c-0.488,0.216-0.875,0.857-1.141,1.915
	c-0.686,2.819-1.381,5.951-2.084,9.395s-1.43,6.917-2.182,10.411c-1.129,0.254-2.291,0.512-3.492,0.785
	c-1.203,0.264-2.429,0.566-3.67,0.896c0.598-2.901,1.155-5.616,1.68-8.162c0.525-2.537,1.025-4.751,1.502-6.642
	c0.09-0.428,0.154-0.808,0.188-1.133c0.023-0.323-0.008-0.604-0.111-0.849c-0.104-0.236-0.287-0.469-0.535-0.694
	c-0.256-0.215-0.6-0.443-1.048-0.665c-0.8-0.467-1.735-0.871-2.817-1.212c-1.088-0.349-2.097-0.595-3.049-0.747
	c-0.555-0.151-1.025-0.199-1.408-0.145c-0.208,0.029-0.391,0.089-0.547,0.178c-0.448,0.253-0.793,0.907-1.027,1.968
	c-0.365,2.74-0.717,5.728-1.066,8.958c-0.342,3.237-0.701,6.477-1.059,9.734c-0.367,3.25-0.741,6.379-1.131,9.373
	c-0.391,3.002-0.812,5.637-1.264,7.914c-0.179,0.855-0.115,1.495,0.18,1.919c0.296,0.417,0.783,0.763,1.464,1.013
	c0.56,0.276,1.232,0.475,2.024,0.58c0.197,0.029,0.393,0.058,0.586,0.087c0.293-0.521,0.65-0.97,1.074-1.357
	c0.419-0.376,1.002-0.614,1.746-0.719c0.169-0.023,0.346-0.041,0.53-0.05c0.212-0.018,0.419-0.033,0.618-0.046
	c0.195-1.276,0.41-2.671,0.639-4.185c0.301-1.979,0.688-4.107,1.166-6.387c1.25-0.4,2.475-0.771,3.678-1.113
	c1.201-0.341,2.42-0.703,3.67-1.068c-0.332,1.905-0.615,3.621-0.859,5.16c-0.234,1.537-0.414,2.893-0.535,4.06
	c-0.275,1.197-0.068,2.023,0.611,2.489c0.688,0.466,1.633,0.8,2.85,1.018c0.592,0.072,1.152,0.149,1.666,0.215
	c0.52,0.074,0.977,0.087,1.361,0.051c0.041-0.004,0.082-0.009,0.123-0.015c0.326-0.046,0.59-0.145,0.789-0.304
	c0.225-0.178,0.33-0.487,0.33-0.937c0.598-2.738,1.283-5.721,2.043-8.931c0.768-3.21,1.557-6.442,2.381-9.695
	c0.822-3.253,1.645-6.429,2.484-9.52c0.838-3.1,1.611-5.897,2.33-8.401c0.234-0.862,0.275-1.508,0.115-1.935
	c-0.168-0.426-0.631-0.888-1.398-1.385c-0.832-0.462-1.705-0.858-2.625-1.196c-0.92-0.329-1.809-0.567-2.666-0.706
	C112.339,18.424,111.819,18.403,111.397,18.462"/>
<path fill="#FF0095" d="M140.837,14.47c-0.039,0.005-0.078,0.012-0.119,0.018c-1.777,0.311-3.564,0.717-5.359,1.203
	c-1.793,0.494-3.549,1.026-5.256,1.585c-1.707,0.56-3.334,1.134-4.896,1.743c-1.555,0.599-2.973,1.169-4.254,1.704l-4.281,32.531
	c-0.066,0.874,0.045,1.593,0.324,2.167c0.287,0.565,0.678,1.037,1.182,1.416c0.615,0.493,1.16,0.883,1.615,1.19
	c0.465,0.298,0.945,0.593,1.447,0.877c0.449,0.257,0.969,0.426,1.578,0.522c0.215,0.031,0.469,0.026,0.756-0.014
	c0.525-0.074,1.17-0.267,1.936-0.58c1.787-0.605,3.654-1.249,5.609-1.938c1.965-0.7,3.895-1.369,5.787-2.015
	c0.809-0.278,1.281-0.543,1.426-0.806c0.152-0.263,0.154-0.696,0.002-1.323c-0.23-0.538-0.445-1.078-0.637-1.613
	c-0.191-0.535-0.471-1.092-0.822-1.682c-0.326-0.533-0.719-0.858-1.176-0.985c-0.35-0.101-0.801-0.108-1.357-0.03
	c-0.182,0.025-0.375,0.06-0.58,0.104c-1.482,0.303-2.852,0.626-4.119,0.968c-1.258,0.333-2.586,0.727-3.98,1.182
	c0.242-0.933,0.459-1.862,0.67-2.809c0.209-0.937,0.436-1.937,0.678-3c1.715-0.621,3.51-1.228,5.361-1.808
	c1.859-0.581,3.67-1.172,5.457-1.778c0.824-0.306,1.338-0.603,1.531-0.89c0.191-0.277,0.178-0.777-0.063-1.478
	c-0.15-0.618-0.318-1.226-0.51-1.821c-0.189-0.604-0.461-1.197-0.82-1.786c-0.32-0.595-0.719-0.954-1.199-1.076
	c-0.404-0.106-0.938-0.118-1.605-0.024c-0.113,0.016-0.229,0.035-0.35,0.057c-1.008,0.176-1.963,0.354-2.852,0.547
	c-0.889,0.186-1.779,0.406-2.668,0.66c0.477-1.761,0.912-3.447,1.299-5.057c0.387-1.602,0.807-3.165,1.258-4.663
	c2.107-0.616,4.111-1.174,6.01-1.666s3.732-0.974,5.521-1.45c0.855-0.241,1.4-0.525,1.643-0.853c0.24-0.319,0.297-0.889,0.18-1.702
	c-0.143-0.715-0.295-1.376-0.438-1.979c-0.15-0.609-0.414-1.264-0.797-1.98C143.501,14.796,142.46,14.242,140.837,14.47"/>
<path fill="#FF0095" d="M154.825,38.479c1.4-3.239,2.791-6.374,4.174-9.395c1.391-3.031,2.678-5.796,3.867-8.305
	c-0.068,2.576-0.082,5.163-0.063,7.771c0.027,2.607,0.07,5.211,0.121,7.831c-1.361,0.287-2.723,0.608-4.068,0.953
	C157.501,37.688,156.163,38.067,154.825,38.479 M159.979,11.501c-1.02,0.143-1.814,0.475-2.391,0.996
	c-0.715,0.645-1.293,1.426-1.742,2.354c-1.246,2.578-2.566,5.512-3.957,8.793c-1.383,3.289-2.734,6.608-4.063,9.958
	c-1.328,3.359-2.566,6.61-3.709,9.744c-1.152,3.135-2.086,5.86-2.795,8.172c-0.186,0.701-0.268,1.248-0.252,1.643
	c0.016,0.396,0.096,0.713,0.248,0.951c0.143,0.239,0.35,0.426,0.615,0.562c0.271,0.135,0.584,0.307,0.936,0.517
	c0.246,0.101,0.492,0.194,0.736,0.281c0.459,0.091,0.926,0.166,1.393,0.232c0.42,0.105,0.744,0.251,0.971,0.443
	c0.303,0.047,0.564,0.054,0.783,0.023c0.119-0.017,0.227-0.045,0.32-0.083c0.242-0.102,0.457-0.311,0.645-0.626
	c-0.086-0.331-0.088-0.576-0.01-0.742c0.078-0.152,0.248-0.294,0.51-0.43c0.332-0.853,0.672-1.727,1.018-2.611
	c0.449-1.135,0.973-2.367,1.568-3.704c1.691-0.713,3.646-1.395,5.85-2.041c2.211-0.648,4.432-1.289,6.658-1.922
	c0.086,1.302,0.172,2.5,0.258,3.586c0.086,1.094,0.189,2.1,0.307,3.008c0.119,0.882,0.316,1.477,0.598,1.792
	c0.047,0.053,0.102,0.104,0.162,0.151c0.045-0.094,0.09-0.186,0.135-0.28c0.193-0.597,0.506-0.953,0.93-1.047
	c0.049-0.01,0.098-0.019,0.146-0.026c0.389-0.055,0.799,0.009,1.23,0.179c0.498,0.198,0.977,0.485,1.457,0.85
	c0.396,0.308,0.748,0.587,1.047,0.843c0.172-0.021,0.346-0.044,0.521-0.069c0.77-0.108,1.266-0.29,1.49-0.547
	c0.225-0.256,0.338-0.67,0.338-1.249c-0.027-2.745-0.029-5.735-0.008-8.954c0.023-3.219,0.061-6.431,0.131-9.647
	c0.063-3.207,0.156-6.297,0.281-9.262c0.127-2.956,0.283-5.589,0.465-7.887c0.088-0.946,0.01-1.688-0.246-2.222
	c-0.246-0.544-0.83-0.929-1.75-1.146c-0.682-0.103-1.361-0.215-2.027-0.346c-0.664-0.123-1.393-0.237-2.178-0.316
	c-0.783-0.08-1.656-0.122-2.602-0.136c-0.953-0.013-2.035,0.035-3.252,0.146C160.478,11.444,160.222,11.467,159.979,11.501"/>
<path fill="#FF0095" d="M186.874,30.423c0.443-2.077,0.889-4.075,1.324-5.995c0.428-1.918,0.887-3.772,1.363-5.568
	c1.1-0.673,2.172-1.204,3.23-1.612c1.049-0.398,2.004-0.679,2.846-0.832c0.096-0.017,0.191-0.032,0.285-0.044
	c0.721-0.102,1.322-0.097,1.813,0.018c0.543,0.131,0.863,0.38,0.951,0.756c0.238,0.667,0.141,1.544-0.27,2.631
	c-0.418,1.079-1.133,2.242-2.145,3.491c-1.012,1.248-2.303,2.502-3.875,3.76C190.817,28.295,188.981,29.427,186.874,30.423
	 M196.108,6.889c-0.113,0.016-0.227,0.033-0.342,0.053c-1.361,0.217-2.779,0.624-4.248,1.193c-1.473,0.579-2.932,1.25-4.383,2.008
	c-1.459,0.767-2.869,1.587-4.234,2.471c-1.371,0.884-2.613,1.725-3.744,2.523c-0.297,0.197-0.555,1.029-0.781,2.487
	c-0.227,1.449-0.43,3.25-0.609,5.384c-0.182,2.143-0.369,4.478-0.551,6.992c-0.18,2.523-0.361,4.96-0.541,7.311
	c-0.189,2.343-0.393,4.446-0.613,6.301c-0.227,1.856-0.479,3.188-0.744,3.994c-0.178,0.855-0.131,1.522,0.148,1.993
	c0.172,0.286,0.391,0.531,0.66,0.738c0.135-0.117,0.27-0.231,0.404-0.343c0.258-0.244,0.594-0.49,0.994-0.745
	c0.41-0.248,0.865-0.458,1.379-0.626c0.381-0.117,0.787-0.21,1.213-0.27c0.148-0.021,0.301-0.038,0.453-0.05
	c0.602-0.05,1.219-0.016,1.857,0.102c0.305,0.075,0.607,0.158,0.912,0.25c0.182-1.152,0.377-2.318,0.592-3.504
	c0.316-1.747,0.648-3.549,1.012-5.432c1.779-0.76,3.582-1.627,5.41-2.602c1.828-0.983,3.566-2.031,5.234-3.165
	c1.66-1.132,3.201-2.308,4.613-3.527c1.412-1.227,2.615-2.45,3.633-3.683c0.619-0.761,1.197-1.525,1.711-2.306
	c0.521-0.774,0.955-1.578,1.301-2.387c0.338-0.817,0.564-1.67,0.67-2.549c0.105-0.879,0.053-1.796-0.154-2.761
	c-0.469-1.948-1.123-3.568-1.969-4.84c-0.84-1.274-1.766-2.449-2.773-3.517c-0.855-0.779-1.871-1.267-3.049-1.473
	C198.499,6.726,197.347,6.715,196.108,6.889"/>
<path fill="#FF0095" d="M78.158,63.85c-0.241,0.034-0.464,0.118-0.669,0.253c-0.273,0.194-0.498,0.502-0.666,0.941
	c-0.048,0.133-0.094,0.266-0.142,0.399c-1.313,3.707-2.61,7.438-3.901,11.198c-1.344,3.905-2.721,7.626-4.137,11.161
	c-0.236-1.644-0.449-3.316-0.646-5.009c-0.205-1.683-0.387-3.316-0.561-4.883c-0.164-1.567-0.33-3.048-0.479-4.462
	c-0.157-1.404-0.308-2.662-0.434-3.776c-0.182-1.444-0.98-2.352-2.39-2.707c-0.576-0.17-1.129-0.265-1.648-0.287
	c-0.529-0.012-1.098,0.016-1.723,0.104c-0.633,0.089-1.025,0.274-1.17,0.545c-0.137,0.278-0.186,0.718-0.146,1.334
	c0.464,4.662,0.984,8.929,1.57,12.797c0.576,3.877,1.234,7.338,1.982,10.387c0.127,0.535,0.391,1.104,0.813,1.701
	c0.407,0.6,1.015,1.041,1.808,1.319c0.704,0.272,1.376,0.48,2.008,0.616c0.648,0.143,1.338,0.279,2.09,0.398
	c0.434,0.06,0.812,0.068,1.131,0.023c0.229-0.031,0.43-0.092,0.6-0.18c0.4-0.204,0.754-0.607,1.051-1.203
	c0.475-1.009,1.014-2.217,1.609-3.614c0.604-1.398,1.238-2.888,1.898-4.485c0.667-1.589,1.335-3.229,2.002-4.914
	c0.66-1.684,1.296-3.32,1.9-4.917c0.596-1.588,1.143-3.091,1.642-4.501c0.491-1.4,0.886-2.631,1.192-3.694
	c0.193-0.528,0.281-0.99,0.266-1.386c-0.006-0.388-0.109-0.728-0.293-1.03c-0.192-0.293-0.465-0.549-0.8-0.77
	c-0.345-0.211-0.729-0.416-1.161-0.615c-0.398-0.221-0.799-0.397-1.191-0.541c-0.312-0.104-0.609-0.174-0.892-0.205
	c-0.081-0.009-0.159-0.015-0.237-0.017C78.339,63.832,78.248,63.837,78.158,63.85"/>
<path fill="#FF0095" d="M89.919,80.835c1.014-2.328,2.011-4.586,3.008-6.767c0.997-2.18,1.93-4.169,2.781-5.975
	c-0.043,1.856-0.055,3.716-0.042,5.59c0.021,1.882,0.05,3.762,0.086,5.642c-0.978,0.205-1.955,0.438-2.933,0.688
	C91.851,80.271,90.88,80.545,89.919,80.835 M93.653,61.41c-0.744,0.104-1.327,0.343-1.746,0.719
	c-0.424,0.388-0.781,0.837-1.074,1.357c-0.063,0.11-0.121,0.223-0.178,0.34c-0.9,1.855-1.85,3.968-2.847,6.33
	c-0.997,2.369-1.972,4.754-2.929,7.17c-0.949,2.416-1.842,4.754-2.672,7.014c-0.82,2.26-1.497,4.223-2.012,5.885
	c-0.129,0.502-0.187,0.899-0.18,1.184c0.016,0.291,0.072,0.517,0.176,0.684c0.111,0.175,0.256,0.311,0.447,0.404
	c0.191,0.103,0.416,0.227,0.672,0.372c0.345,0.142,0.681,0.259,1.008,0.359c0.338,0.108,0.641,0.195,0.914,0.27
	c0.356,0.087,0.647,0.111,0.872,0.079c0.087-0.012,0.165-0.033,0.231-0.062c0.25-0.104,0.458-0.358,0.627-0.779
	c0.306-0.778,0.611-1.573,0.934-2.396c0.321-0.814,0.699-1.706,1.126-2.665c1.218-0.518,2.628-1.009,4.216-1.474
	c1.594-0.467,3.188-0.924,4.791-1.383c0.063,0.941,0.125,1.798,0.188,2.584s0.141,1.51,0.221,2.164
	c0.086,0.637,0.229,1.066,0.43,1.289c0.207,0.229,0.559,0.388,1.072,0.471c0.496,0.121,0.977,0.157,1.441,0.126
	c0.473-0.032,0.984-0.087,1.537-0.164c0.561-0.079,0.914-0.206,1.074-0.393c0.16-0.179,0.24-0.483,0.242-0.898
	c-0.012-1.978-0.018-4.13-0.004-6.448c0.02-2.318,0.049-4.631,0.092-6.945c0.053-2.307,0.121-4.529,0.205-6.666
	c0.092-2.131,0.199-4.022,0.332-5.683c0.064-0.674,0.01-1.211-0.174-1.6c-0.176-0.391-0.6-0.659-1.264-0.825
	c-0.488-0.07-0.977-0.148-1.457-0.245c-0.48-0.088-1.002-0.17-1.57-0.229c-0.561-0.06-1.185-0.093-1.873-0.1
	c-0.518-0.006-1.09,0.016-1.721,0.058c-0.199,0.013-0.406,0.029-0.618,0.046C93.999,61.369,93.822,61.386,93.653,61.41"/>
<path fill="#FF0095" d="M115.804,58.195c-0.658,0.092-1.348,0.29-2.074,0.589c-0.914,0.388-1.828,1.053-2.727,2.009
	c-1.109,1.192-2.104,2.543-2.971,4.03c-0.869,1.497-1.607,3.061-2.236,4.688c-0.619,1.635-1.111,3.285-1.467,4.961
	c-0.355,1.675-0.566,3.286-0.633,4.825c-0.066,1.548,0.01,2.972,0.232,4.289s0.611,2.438,1.162,3.347
	c0.32,0.604,0.768,1.102,1.344,1.505s1.152,0.694,1.729,0.864c0.639,0.143,1.369,0.291,2.178,0.437
	c0.816,0.153,1.721,0.19,2.721,0.119c0.236-0.008,0.479-0.028,0.721-0.063s0.49-0.082,0.738-0.143
	c0.504-0.114,0.984-0.259,1.441-0.444c0.465-0.178,0.898-0.386,1.314-0.635c0.418-0.24,0.779-0.49,1.076-0.738
	c0.602-0.543,1.203-1.207,1.797-1.982c0.602-0.775,1.092-1.605,1.479-2.489c0.369-0.761,0.531-1.388,0.5-1.868
	c-0.031-0.479-0.447-0.775-1.264-0.895c-0.629-0.104-1.221-0.117-1.775-0.039c-1.234,0.173-2.287,0.798-3.162,1.875
	c-1.514,1.888-2.695,2.895-3.543,3.014c-0.131,0.018-0.254,0.015-0.369-0.01c-0.449-0.075-0.785-0.417-1.023-1.031
	c-0.232-0.607-0.367-1.384-0.412-2.311c-0.039-0.928,0.012-1.973,0.148-3.133c0.146-1.162,0.357-2.332,0.633-3.529
	c0.307-1.148,0.717-2.4,1.24-3.77c0.529-1.363,1.094-2.626,1.688-3.781c0.604-1.156,1.189-2.104,1.768-2.859
	c0.479-0.62,0.908-0.958,1.283-1.011c0.076-0.011,0.152-0.01,0.225,0.003c0.432,0.13,0.688,0.482,0.766,1.068
	c0.088,0.593,0.119,1.253,0.094,1.992c-0.002,0.415,0.031,0.86,0.094,1.335c0.086,0.566,0.221,1.059,0.412,1.463
	c0.193,0.414,0.449,0.768,0.768,1.051c0.32,0.292,0.729,0.52,1.217,0.693c0.496,0.173,1.08,0.28,1.762,0.323
	c0.273,0.013,0.504,0.008,0.688-0.019c0.064-0.009,0.123-0.02,0.176-0.034c0.217-0.048,0.385-0.132,0.498-0.242
	c0.119-0.104,0.209-0.246,0.273-0.419c0.063-0.164,0.127-0.347,0.193-0.546c0.127-0.433,0.248-0.917,0.354-1.45
	c0.113-0.534,0.195-1.082,0.26-1.661c0.064-0.571,0.113-1.148,0.146-1.732c0.033-0.575,0.043-1.129,0.02-1.663
	c-0.016-0.456-0.063-0.881-0.125-1.279c-0.064-0.388-0.176-0.762-0.334-1.111c-0.16-0.341-0.367-0.675-0.639-1
	c-0.264-0.317-0.6-0.633-1.008-0.947c-0.424-0.234-0.904-0.461-1.439-0.679c-0.529-0.211-1.098-0.399-1.697-0.557
	c-0.592-0.159-1.217-0.278-1.857-0.361s-1.258-0.117-1.857-0.102C116.153,58.153,115.979,58.17,115.804,58.195"/>
<path fill="#FF0095" d="M133.497,74.712c1.012-2.33,2.01-4.588,3.006-6.768c0.998-2.18,1.93-4.17,2.783-5.975
	c-0.045,1.856-0.055,3.715-0.043,5.589c0.021,1.881,0.049,3.762,0.086,5.641c-0.979,0.207-1.955,0.439-2.932,0.689
	C135.427,74.147,134.458,74.421,133.497,74.712 M137.231,55.286c-0.744,0.104-1.328,0.343-1.748,0.718
	c-0.512,0.47-0.93,1.03-1.25,1.697c-0.902,1.856-1.85,3.968-2.848,6.33c-0.998,2.37-1.971,4.753-2.928,7.17
	c-0.951,2.416-1.844,4.754-2.672,7.015c-0.822,2.258-1.498,4.221-2.014,5.883c-0.129,0.503-0.186,0.9-0.178,1.184
	c0.016,0.292,0.07,0.518,0.174,0.685c0.111,0.175,0.256,0.31,0.447,0.403c0.193,0.104,0.416,0.227,0.672,0.373
	c0.344,0.142,0.682,0.259,1.01,0.359c0.336,0.108,0.639,0.195,0.912,0.27c0.244,0.06,0.457,0.088,0.639,0.092
	c0.084,0.002,0.164-0.002,0.234-0.013c0.088-0.013,0.164-0.032,0.232-0.062c0.051-0.021,0.102-0.051,0.148-0.086
	c0.184-0.132,0.344-0.36,0.477-0.693c0.307-0.778,0.611-1.572,0.934-2.396c0.322-0.814,0.699-1.705,1.127-2.664
	c1.219-0.518,2.629-1.01,4.215-1.475c1.594-0.466,3.188-0.924,4.791-1.383c0.063,0.943,0.125,1.799,0.188,2.585
	s0.143,1.51,0.221,2.164c0.031,0.233,0.07,0.438,0.117,0.614c0.082,0.309,0.186,0.533,0.313,0.674
	c0.207,0.23,0.561,0.389,1.072,0.472c0.496,0.12,0.977,0.157,1.441,0.126c0.473-0.031,0.984-0.086,1.537-0.164
	c0.563-0.079,0.914-0.207,1.074-0.393c0.16-0.179,0.242-0.484,0.242-0.898c-0.002-0.463-0.006-0.936-0.008-1.418
	c-0.006-1.576-0.006-3.254,0.004-5.03c0.02-2.319,0.049-4.632,0.094-6.945c0.051-2.306,0.119-4.529,0.203-6.667
	c0.092-2.13,0.199-4.021,0.332-5.682c0.064-0.675,0.01-1.211-0.174-1.601c-0.064-0.144-0.162-0.27-0.293-0.382
	c-0.227-0.192-0.551-0.338-0.971-0.443c-0.467-0.066-0.934-0.141-1.393-0.232c-0.021-0.004-0.043-0.008-0.064-0.012
	c-0.48-0.088-1-0.17-1.57-0.229c-0.559-0.06-1.184-0.093-1.873-0.1c-0.68-0.008-1.457,0.032-2.338,0.104
	C137.575,55.245,137.399,55.262,137.231,55.286"/>
<path fill="#FF0095" d="M165.847,51.195c-0.049,0.007-0.098,0.016-0.146,0.026c-0.424,0.095-0.736,0.45-0.93,1.047
	c-0.045,0.094-0.09,0.186-0.135,0.28c-1.066,2.204-2.139,4.376-3.211,6.517c-1.109,2.231-2.25,4.422-3.406,6.564
	c-0.574-1.899-1.123-3.697-1.656-5.403c-0.525-1.698-1.035-3.208-1.529-4.522c-0.334-0.688-0.654-1.188-0.941-1.51
	c-0.289-0.314-0.752-0.508-1.393-0.583c-0.533-0.054-1.055-0.051-1.564,0.021c-0.104,0.015-0.207,0.032-0.311,0.053
	c-0.607,0.12-1.24,0.252-1.906,0.389c-0.193,0.069-0.359,0.141-0.5,0.213c-0.262,0.136-0.432,0.278-0.51,0.43
	c-0.078,0.166-0.076,0.412,0.01,0.742c0.037,0.148,0.092,0.313,0.164,0.495c0.381,1.243,0.813,2.565,1.289,3.985
	c0.479,1.419,0.973,2.871,1.482,4.355s1.02,2.969,1.529,4.436c0.51,1.476,0.988,2.869,1.434,4.189
	c-0.26,1.627-0.455,3.106-0.584,4.422c-0.115,1.158-0.236,2.199-0.367,3.115c-0.018,0.131-0.037,0.258-0.057,0.384
	c-0.041,0.61,0.014,1.053,0.158,1.344c0.15,0.29,0.463,0.565,0.928,0.82c0.471,0.142,0.982,0.276,1.535,0.39
	c0.561,0.119,1.09,0.209,1.602,0.275c0.338,0.036,0.605,0.041,0.807,0.013c0.133-0.019,0.238-0.052,0.314-0.101
	c0.193-0.113,0.346-0.412,0.451-0.894c0.242-1.278,0.484-2.592,0.744-3.96c0.014-0.075,0.029-0.15,0.043-0.228
	c0.25-1.296,0.551-2.698,0.895-4.208c0.947-1.586,1.92-3.243,2.924-4.975c1.012-1.733,1.961-3.405,2.859-5.035
	c0.9-1.622,1.713-3.128,2.428-4.525c0.723-1.389,1.262-2.545,1.623-3.478c0.154-0.385,0.273-0.721,0.355-1
	c0.088-0.272,0.129-0.528,0.113-0.76c-0.008-0.223-0.063-0.44-0.176-0.649c-0.104-0.202-0.254-0.414-0.447-0.646
	c-0.059-0.052-0.119-0.105-0.184-0.16c-0.299-0.256-0.65-0.535-1.047-0.843c-0.48-0.365-0.959-0.652-1.457-0.85
	C166.646,51.205,166.235,51.141,165.847,51.195"/>
<path fill="#FF0095" d="M180.116,48.353c-0.426,0.06-0.832,0.153-1.213,0.27c-0.514,0.167-0.969,0.378-1.379,0.626
	c-0.4,0.255-0.736,0.501-0.994,0.745c-0.135,0.111-0.27,0.226-0.404,0.343c-0.648,0.564-1.291,1.199-1.922,1.903
	c-0.754,0.858-1.453,1.76-2.088,2.714c-0.627,0.952-1.172,1.928-1.639,2.91c-0.459,0.989-0.789,1.909-0.982,2.766
	c-0.273,0.99-0.404,1.907-0.389,2.751c0.021,0.853,0.156,1.638,0.412,2.362c0.254,0.725,0.613,1.383,1.068,1.976
	c0.463,0.592,0.99,1.105,1.582,1.523c0.537,0.409,1.137,0.809,1.793,1.184c0.664,0.382,1.328,0.746,1.984,1.087
	c0.664,0.348,1.287,0.683,1.871,1.016c0.039,0.022,0.078,0.044,0.115,0.065c0.541,0.308,0.99,0.598,1.357,0.869
	c0.4,0.289,0.664,0.563,0.799,0.804c0.145,0.248,0.078,0.481-0.178,0.699c-0.357,0.374-0.855,0.603-1.488,0.692
	c-0.418,0.059-0.895,0.057-1.428-0.006c-1.207-0.141-2.602-0.604-4.188-1.4c-0.18-0.09-0.365-0.186-0.551-0.285
	c-0.32-0.18-0.672-0.312-1.072-0.385c-0.393-0.066-0.801-0.086-1.232-0.052c-0.1,0.011-0.201,0.022-0.301,0.036
	c-0.324,0.046-0.65,0.113-0.982,0.213c-0.424,0.129-0.832,0.316-1.217,0.553c-0.449,0.295-0.65,0.66-0.611,1.088
	c0.02,0.189,0.115,0.4,0.285,0.634c0.24,0.333,0.635,0.71,1.186,1.13c1.727,1.512,3.406,2.512,5.039,2.991
	c1.525,0.456,3.09,0.573,4.699,0.348c0.115-0.017,0.23-0.034,0.346-0.054c1.283-0.197,2.387-0.525,3.301-0.982
	c0.922-0.449,1.701-0.965,2.342-1.539c0.643-0.574,1.156-1.166,1.541-1.79c0.387-0.616,0.691-1.187,0.9-1.7
	c0.346-0.74,0.459-1.395,0.34-1.983c-0.111-0.581-0.391-1.112-0.83-1.595c-0.219-0.241-0.471-0.478-0.752-0.707
	c-0.275-0.223-0.58-0.441-0.912-0.65c-0.672-0.424-1.383-0.842-2.143-1.271c-0.752-0.421-1.52-0.858-2.287-1.321
	c-0.77-0.454-1.457-0.962-2.08-1.523c-0.488-0.415-0.799-0.916-0.928-1.512c-0.125-0.587-0.133-1.208-0.027-1.863
	c0.113-0.646,0.314-1.306,0.613-1.97c0.305-0.665,0.65-1.293,1.043-1.893c0.402-0.592,0.82-1.135,1.254-1.628
	c0.441-0.485,0.842-0.861,1.203-1.12c0.35-0.324,0.617-0.496,0.799-0.521c0.029-0.004,0.057-0.004,0.082,0
	c0.186,0.035,0.289,0.192,0.32,0.474c0.031,0.289,0.006,0.673-0.084,1.17c-0.08,0.496-0.186,1.029-0.307,1.582
	c-0.113,0.561-0.234,1.113-0.355,1.658c-0.111,0.552-0.193,1.03-0.242,1.452c-0.236,2.021,1.107,3.354,4.029,3.998
	c0.355,0.122,0.65,0.165,0.885,0.132c0.121-0.017,0.227-0.054,0.314-0.11c0.273-0.16,0.531-0.49,0.789-0.993
	c0.24-0.518,0.465-1.146,0.691-1.895c0.225-0.74,0.443-1.523,0.645-2.338c0.209-0.807,0.389-1.61,0.533-2.392
	c0.154-0.782,0.275-1.473,0.355-2.09c0.002-0.346,0.002-0.718-0.014-1.122c-0.006-0.396-0.063-0.804-0.158-1.205
	c-0.094-0.401-0.254-0.803-0.494-1.21c-0.23-0.399-0.559-0.794-0.99-1.175c-0.654-0.547-1.471-1.038-2.447-1.454
	c-0.664-0.286-1.326-0.526-1.986-0.726c-0.305-0.092-0.607-0.176-0.912-0.25c-0.639-0.117-1.256-0.151-1.857-0.102
	C180.417,48.315,180.265,48.332,180.116,48.353"/>
<path fill="#00FFF5" d="M206.653,44.455c-0.648,0.091-1.439,0.385-2.35,0.753c-1.795,0.728-2.5,1.518-1.855,3.217
	c0.654,1.697,6.164,14.519,6.164,14.519l0.346,3.694l-8.711,2.642c0,0-2.34,0.873-3.576,2.171c-0.732-1.35-2.602-4.596-2.602-4.596
	s-0.555-0.891-1.336-0.781c-0.014,0.002-0.027,0.004-0.039,0.006c-0.197-0.003-0.383,0.012-0.561,0.037
	c-0.486,0.068-0.922,0.219-1.379,0.34c-0.641,0.237-1.418,0.372-1.412,1.581c0,0.122,0.016,0.371,0.039,0.723
	c0.221,3.147,1.273,14.485,1.461,15.524c0.027,0.152,0.066,0.278,0.111,0.383c0.197,0.442,0.537,0.492,0.904,0.44
	c0.199-0.027,0.404-0.085,0.6-0.125c0.625-0.201,1.217-0.318,1.908-0.744c0.785-0.309,1.164-1.504,1.164-1.504
	s1.191-4.144,1.65-5.833c0.979,0.363,2.428,0.235,3.215,0.125c0.342-0.048,0.559-0.093,0.559-0.093l8.725-2.419l0.338,3.694
	c0,0-2.91,15.26-3.219,17.239c-0.289,1.858,0.404,2.282,2.008,2.058c0.105-0.015,0.215-0.033,0.326-0.053
	c1.834-0.326,3.172-0.662,3.672-1.855c0.387-0.971,10-25.028,10-25.028l12.42-3.613c0,0,5.17-2.273,4.975-5.349
	c-0.365-2.992-5.555-2.279-5.67-2.263c-0.002,0-0.002,0-0.002,0l-12.428,3.605c0,0-13.439-17.361-13.982-18.063
	C207.782,44.471,207.286,44.366,206.653,44.455"/>
</svg>
